<?xml version="1.0" encoding="utf-8"?>
<!-- Generator: Adobe Illustrator 27.7.0, SVG Export Plug-In . SVG Version: 6.00 Build 0)  -->
<svg version="1.1" id="Layer_1" xmlns="http://www.w3.org/2000/svg" xmlns:xlink="http://www.w3.org/1999/xlink" x="0px" y="0px"
	 viewBox="0 0 1000 585" style="enable-background:new 0 0 1000 585;" xml:space="preserve">
<style type="text/css">
	.st0{fill:#002F60;}
	.st1{fill:#01A5DC;}
	.st2{fill:#18A562;}
</style>
<g>
	<path class="st0" d="M184.49,332.34c51.99,0,88.51-20.07,114.22-50.91c2.55-3.06,2.1-7.61-1.03-10.08l-29.13-23.01
		c-12.79-10.1-30.64-11.11-44.32-2.24c-9.37,6.08-19.68,9.3-31.24,9.3c-22.94,0-40.69-15.91-40.69-44.39
		c0-35.51,25.16-71.03,64-71.03c12.08,0,22.48,3.93,29.98,11.89c9.66,10.25,24.74,13.29,37.65,7.67l50.01-21.77
		c-10.73-45.87-50.31-75.47-106.17-75.47c-111.72,0-166.1,85.82-166.1,156.48C61.68,288.32,111.99,332.34,184.49,332.34z"/>
	<path class="st0" d="M531.5,141.09h55.83l15.7-58.66c1.97-7.36-3.58-14.59-11.2-14.59H367.96l-14.88,55.59
		c-2.39,8.91,4.33,17.66,13.55,17.66h35.93c11.1,0,19.17,10.53,16.29,21.24l-43.04,160.05c-0.6,2.22,1.08,4.41,3.38,4.41h67.11
		c8.78,0,16.47-5.9,18.76-14.38l40.78-151.65C508.96,149.15,519.48,141.09,531.5,141.09z"/>
	<g>
		<path class="st1" d="M140.4,442.19l-12.88-10.18c-3.02,3.74-6.52,5.8-10.81,5.8c-4.93,0-8.75-3.42-8.75-9.54
			c0-7.63,5.41-15.27,13.76-15.27c4.21,0,7.47,2.23,8.67,6.76l16.62-7.24c-2.31-9.86-10.81-16.22-22.82-16.22
			c-24.01,0-35.7,18.45-35.7,33.63c0,14.95,10.81,24.41,26.4,24.41C126.72,454.35,134.83,449.5,140.4,442.19z"/>
		<path class="st1" d="M180.94,445.69l0.95,7.47h19.8l-8.43-56.06h-18.45l-38.48,56.06h20.28l4.85-7.47H180.94z M178.4,418.97
			l1.51,13.52h-10.18L178.4,418.97z"/>
		<path class="st1" d="M217.99,397.5l-14.95,55.66h18.61l4.05-15.11h7.87c17.65,0,28.15-9.3,28.15-23.22
			c0-4.37-1.43-8.27-4.37-11.21c-4.13-4.13-10.42-6.12-20.67-6.12H217.99z M242.96,417.38c0,4.21-3.26,7.39-10.34,7.39h-3.34
			l3.26-12.4h3.5c2.07,0,4.29,0.48,5.57,1.75C242.48,415,242.96,416.19,242.96,417.38z"/>
		<polygon class="st1" points="319.29,397.5 267.92,397.5 263.71,413.25 280.09,413.25 269.35,453.16 287.96,453.16 298.69,413.25 
			315.07,413.25 		"/>
		<path class="st1" d="M341.79,397.5h-18.93l-7.47,27.75c-0.8,3.02-1.19,6.12-1.19,8.98c0,12.56,8.43,20.04,24.09,20.04
			c8.83,0,16.78-2.07,22.02-7.31c3.9-3.9,6.76-9.3,8.75-16.7l8.83-32.76h-18.92l-8.03,29.9c-1.19,4.29-2.31,6.44-3.98,8.11
			c-1.51,1.51-3.66,2.31-5.96,2.31c-4.93,0-7.63-2.39-7.63-7c0-1.27,0.24-2.78,0.64-4.37L341.79,397.5z"/>
		<path class="st1" d="M430.04,415.08c0-4.37-1.27-8.51-4.37-11.61c-3.74-3.74-10.26-5.96-20.51-5.96h-21.71l-14.95,55.66h18.61
			l4.29-15.9h4.61l6.2,15.9h20.04l-7.71-18.53C425.51,431.22,430.04,423.74,430.04,415.08z M401.66,423.98h-6.76l2.94-10.89h6.6
			c2.62,0,4.45,0.56,5.49,1.59c0.8,0.8,1.19,1.83,1.19,2.94C411.12,421.12,407.86,423.98,401.66,423.98z"/>
		<polygon class="st1" points="425.19,453.16 473.05,453.16 477.11,437.9 447.53,437.9 449.2,431.85 476.39,431.85 479.97,418.41 
			452.78,418.41 454.29,412.77 483.47,412.77 487.6,397.5 440.14,397.5 		"/>
	</g>
	<polygon class="st2" points="205.55,471.66 164.16,471.66 160.76,484.35 173.96,484.35 165.31,516.52 180.31,516.52 188.96,484.35 
		202.16,484.35 	"/>
	<polygon class="st2" points="237.53,471.66 233.24,487.49 219.52,487.49 223.82,471.66 208.82,471.66 196.77,516.52 211.77,516.52 
		216.06,500.44 229.78,500.44 225.48,516.52 240.48,516.52 252.52,471.66 	"/>
	<polygon class="st2" points="245.35,516.52 283.92,516.52 287.19,504.22 263.35,504.22 264.7,499.35 286.61,499.35 289.5,488.52 
		267.58,488.52 268.8,483.97 292.32,483.97 295.65,471.66 257.39,471.66 	"/>
	<polygon class="st2" points="326.79,490.18 328.33,484.48 350.89,484.48 354.35,471.66 316.79,471.66 304.75,516.52 319.74,516.52 
		323.65,501.84 344.61,501.84 347.75,490.18 	"/>
	<polygon class="st2" points="364.28,503.7 372.86,471.66 357.87,471.66 345.82,516.52 381.26,516.52 384.72,503.7 	"/>
	<path class="st2" d="M412.34,471.34l-31.02,45.18h16.34l3.91-6.02h15.7l0.77,6.02H434l-6.79-45.18H412.34z M408.24,499.86
		l6.98-10.89l1.22,10.89H408.24z"/>
	<path class="st2" d="M464.63,483.71c3.97,0,7.82,1.67,10.38,4.04l9.36-9.61c-3.08-3.78-10.32-7.43-18.78-7.43
		c-18.07,0-29.61,12.11-29.61,26.79c0,14.1,11.02,19.99,22.17,19.99c6.47,0,12.82-1.99,17.24-4.61l6.41-22.88h-21.6l-2.44,9.61h7.37
		l-1.47,4.81c-1.03,0.45-2.31,0.7-3.91,0.7c-4.68,0-8.71-2.75-8.71-8.33C451.04,489.54,456.1,483.71,464.63,483.71z"/>
	<path class="st0" d="M591.56,433.16c-4.32,0-7.95-3.34-8.26-7.69l-1.11-15.29c-0.32-4.41,2.89-8.3,7.28-8.83
		c1.7-0.2,3.23-0.47,4.61-0.77c-1.09-0.55-2.07-1.35-2.83-2.35c-1.57-2.05-2.09-4.71-1.42-7.2l11.42-42.37
		c0.98-3.62,4.26-6.13,8-6.13h30.12c1-3.44,1.61-5.57,1.72-5.94l37.26-128.88h61.71c10.5,0,15.53,5.45,12.68,13.75l-8.78,25.63
		c-2.84,8.3,2.19,13.75,12.68,13.75h52.52l18.03-53.13h-52.63c-10.5,0-15.53-5.45-12.68-13.75l8.78-25.63
		c2.84-8.3-2.19-13.75-12.68-13.75H629.41c-6.96,0-13.16,4.42-15.43,11L509.77,517.2h67.91c6.34,0,11.99-4.01,14.08-10l15.28-52.84
		c0,0,2.95-10.21,7.12-24.63c-6.36,1.86-13.68,2.99-22.17,3.42C591.84,433.15,591.7,433.16,591.56,433.16z"/>
	<path class="st0" d="M799.84,132.71l-8.7,25.79c-2.78,8.26,2.25,13.67,12.71,13.67h52.32l18.03-53.13h-52.43
		c-10.46,0-15.5-5.41-12.71-13.67l8.7-25.79c2.79-8.26-2.25-13.67-12.71-13.67H653.38c-6.34,0-11.97,4.04-13.99,10.05l-14.53,43.08
		h162.27C797.59,119.04,802.62,124.45,799.84,132.71z"/>
	<g>
		<path class="st1" d="M747.83,457.64c37.01-20.48,47.01-38.63,47.01-58.65c0-28.16-21.65-48.18-58.65-48.18
			c-32.12,0-54.46,14.2-72.61,33.75l30.72,32.35c12.34-12.1,25.83-20.25,35.14-20.25c7.91,0,11.4,4.19,11.4,10.01
			c0,4.89-1.4,10.24-14.2,18.15l-83.32,51.2l-10.94,40.5h135.92l11.41-42.59h-61.44L747.83,457.64z"/>
	</g>
	<g>
		<path class="st1" d="M595.04,407.93c5.79-1.19,10.28-3.21,13.55-6.08c3.77-3.31,1.29-9.56-3.72-9.56l0,0
			c-3.62,0-6.25-3.44-5.31-6.93l8.46-31.37c0.65-2.4,2.83-4.07,5.31-4.07h31.36c3.62,0,6.25,3.43,5.31,6.92l-8.1,30.29
			c-5.89,21.32-16.35,33.67-44.88,36.44c-3.06,0.3-5.77-2.01-5.99-5.08l-0.35-4.78C590.48,410.96,592.35,408.49,595.04,407.93z"/>
	</g>
	<g>
		<g>
			<path class="st1" d="M781.35,497.43L809.52,463c8.43,8.67,19.02,15.17,32.26,15.17c14.2,0,21.67-7.7,21.67-15.89
				c0-8.43-7.46-13.72-24.56-13.72h-12.76l1.44-26l39.72-29.13h-53.93l10.35-42.61h114.6l-9.63,38.76l-44.54,32.02
				c19.5,6.98,30.09,21.67,30.09,40.21c0,17.09-6.74,31.3-17.09,41.89c-12.28,12.28-31.06,19.02-53.69,19.02
				C817.95,522.71,796.76,514.28,781.35,497.43z"/>
		</g>
	</g>
</g>
</svg>
